<svg version="1" xmlns="http://www.w3.org/2000/svg" width="1054.667" height="1054.667" viewBox="0 0 791.000000 791.000000"><path d="M268 51.1c-35 3.7-55.7 10.8-77.5 26.4-32.1 23-60.3 62.5-79.8 112-6.6 16.8-14.9 44.4-12.9 43.1.4-.2.2 3.4-.5 8.2-.8 5.2-1.8 28.9-2.5 58.2-1.3 56.7-1.1 61.6 5.2 92.3 5.2 25.6 9.9 39.5 19.6 58.9l7.9 15.8v-14.3c0-12.9.2-14.6 2.4-19 4-8 14.6-12.7 29.1-12.7 7.7 0 15.1 1.8 24.7 5.9 6.1 2.7 9.7 2.5 10.1-.5.2-1.2-3.1-19.2-7.2-40-13.2-66.7-18.2-101-17.2-118.9 1-19.1 5.8-33.9 14.8-46.1 23.8-31.9 65.5-58.1 108-67.6 14.4-3.2 38.9-3.2 56.3 0 48.1 9 72.8 22.2 101.1 54.2 5.4 6 9.9 10.8 10.1 10.6.2-.2-2.2-16.2-5.2-35.6-6-38.3-6.9-41.5-16-57.4-21.9-38.4-58.8-63-107.5-71.8-13.2-2.3-48.4-3.3-63-1.7zM148.3 513c2.4 5.2 9.9 21.3 16.6 35.7 6.7 14.4 14.4 32.8 17.1 40.8 2.8 8 5.9 16.4 7 18.5l2 4h-17.2c-11.8 0-19.3.5-23.7 1.5-3.5.9-21.5 8.2-40 16.4S70 647.3 62 650.5c-26.4 10.5-35.5 15.7-50.7 29.3C-1 690.7 0 685.1 0 741.9V791h556.2l-.6-2.3c-2.1-7.6-3.8-21.3-3-24.6.9-3.7.8-3.6 10.4-6.1 3.4-.9 6.1-2.9 11.9-8.7 6.3-6.3 7.2-7.6 6-8.7-1.6-1.5-92.7-56.6-93.6-56.6-.3 0-.3 5.9.1 13.1l.6 13-8.7-7.4c-28-23.6-69.6-54.3-94.2-69.4-26.2-16.1-58.3-32.3-90.7-45.8-24.8-10.4-34.3-12.1-49.3-9-9.6 1.9-12.8 1.6-17.6-2.1-8.6-6.5-25.1-28.8-36.5-49.2-3.9-7-6.7-11.1-7.5-10.8-3.6 1.3-10.9 1.7-15.6.7-6.7-1.5-16.4-6.4-20.7-10.4l-3.3-3.2 4.4 9.5z"/></svg>