<?xml version="1.0" standalone="no"?>
<!DOCTYPE svg PUBLIC "-//W3C//DTD SVG 20010904//EN"
 "http://www.w3.org/TR/2001/REC-SVG-20010904/DTD/svg10.dtd">
<svg version="1.0" xmlns="http://www.w3.org/2000/svg"
 width="791.000000pt" height="791.000000pt" viewBox="0 0 791.000000 791.000000"
 preserveAspectRatio="xMidYMid meet">

<g transform="translate(0.000000,791.000000) scale(0.100000,-0.100000)"
fill="#000000" stroke="none">
<path d="M2620 7394 c-238 -28 -390 -71 -549 -154 -362 -191 -681 -571 -905
-1080 -111 -252 -186 -486 -191 -600 -2 -36 -8 -108 -14 -160 -6 -52 -13 -306
-17 -565 -7 -508 -6 -530 46 -798 60 -305 105 -439 224 -670 l64 -125 -2 131
c-1 152 10 202 57 253 40 42 126 74 223 81 84 7 144 -6 267 -54 48 -19 94 -33
102 -29 9 3 15 18 15 38 0 18 -32 193 -70 388 -80 404 -130 697 -161 949 -18
153 -20 188 -10 280 27 260 93 393 290 589 243 240 546 412 876 496 209 53
354 56 605 15 238 -40 380 -82 545 -164 83 -41 180 -97 217 -125 37 -28 135
-121 218 -207 82 -86 150 -151 150 -144 0 7 -25 169 -55 360 -60 386 -72 426
-173 592 -239 394 -633 638 -1138 704 -142 19 -454 18 -614 -1z"/>
<path d="M1452 2842 c138 -284 327 -709 358 -802 20 -63 49 -143 64 -177 14
-34 26 -64 26 -66 0 -1 -75 -3 -167 -4 -125 0 -185 -5 -236 -18 -38 -9 -215
-82 -395 -162 -180 -79 -388 -169 -462 -198 -305 -121 -390 -171 -542 -317
l-98 -94 0 -502 0 -502 2780 0 c1724 0 2780 4 2780 9 0 6 -7 40 -15 76 -24
102 -24 188 -1 214 11 11 31 21 45 21 43 1 108 36 157 87 48 49 80 91 73 97
-13 11 -938 566 -944 566 -4 0 -5 -56 -3 -125 2 -69 2 -125 1 -125 -2 0 -45
35 -96 78 -358 302 -758 589 -1058 762 -258 149 -801 403 -969 455 -82 24
-220 30 -313 12 -54 -10 -89 -12 -111 -6 -40 11 -148 121 -235 239 -61 82
-182 278 -216 350 l-16 35 -107 0 c-101 0 -111 2 -177 34 -39 19 -88 53 -110
77 l-41 42 28 -56z"/>
</g>
</svg>
