<?xml version="1.0" standalone="no"?>
<!DOCTYPE svg PUBLIC "-//W3C//DTD SVG 20010904//EN"
 "http://www.w3.org/TR/2001/REC-SVG-20010904/DTD/svg10.dtd">
<svg version="1.0" xmlns="http://www.w3.org/2000/svg"
 width="791.000000pt" height="791.000000pt" viewBox="0 0 791.000000 791.000000"
 preserveAspectRatio="xMidYMid meet">
<metadata>
Created by potrace 1.11, written by Peter Selinger 2001-2013
</metadata>
<g transform="translate(0.000000,791.000000) scale(0.100000,-0.100000)"
fill="#000000" stroke="none">
<path d="M2700 7403 c-108 -9 -312 -44 -395 -68 -120 -34 -310 -130 -418 -210
-280 -208 -526 -533 -708 -935 -109 -242 -197 -508 -203 -619 -2 -36 -9 -116
-16 -178 -7 -66 -12 -320 -13 -620 l-2 -508 33 -170 c67 -345 115 -494 234
-726 l65 -126 -5 117 c-8 205 34 286 172 329 118 37 246 25 380 -34 66 -29
104 -32 113 -8 3 9 -1 53 -9 97 -9 45 -46 234 -83 421 -109 559 -161 932 -151
1083 12 170 54 315 120 416 202 304 611 584 1010 692 248 67 429 70 716 13
450 -90 673 -213 952 -526 56 -63 104 -110 106 -105 1 5 -22 165 -52 354 -61
385 -74 431 -171 593 -243 406 -652 654 -1180 715 -84 9 -393 11 -495 3z"/>
<path d="M1464 2818 c13 -29 88 -190 166 -358 78 -168 159 -357 180 -420 21
-63 49 -143 64 -177 14 -34 26 -65 26 -69 0 -4 -37 -4 -82 -1 -108 8 -299 -7
-363 -29 -27 -9 -192 -80 -365 -156 -173 -77 -378 -165 -455 -195 -296 -117
-395 -176 -554 -331 l-81 -79 0 -501 0 -502 2780 0 c1529 0 2780 2 2780 4 0 3
-6 35 -14 73 -8 37 -17 95 -21 128 -6 53 -4 64 15 88 14 17 31 27 48 27 44 1
109 36 158 87 48 49 80 91 73 97 -16 13 -939 566 -944 566 -5 0 -5 -58 -2
-130 l6 -130 -142 118 c-383 318 -738 570 -1047 746 -268 153 -758 380 -936
436 -99 31 -211 36 -312 16 -45 -10 -96 -15 -112 -11 -77 17 -314 317 -433
550 -43 84 -44 85 -105 74 -94 -18 -231 26 -316 102 l-36 31 24 -54z"/>
</g>
</svg>
