<?xml version="1.0" encoding="UTF-8" standalone="no"?>
<!DOCTYPE svg PUBLIC "-//W3C//DTD SVG 1.1//EN" "http://www.w3.org/Graphics/SVG/1.1/DTD/svg11.dtd">
<svg width="100%" height="100%" viewBox="0 0 48 48" version="1.1" xmlns="http://www.w3.org/2000/svg" xmlns:xlink="http://www.w3.org/1999/xlink" xml:space="preserve" xmlns:serif="http://www.serif.com/" style="fill-rule:evenodd;clip-rule:evenodd;stroke-linejoin:round;stroke-miterlimit:2;">
    <g transform="matrix(1.33333,0,0,1.33333,0,0)">
        <clipPath id="_clip1">
            <path d="M36,7.363C36,3.299 32.701,0 28.637,0L7.363,0C3.299,0 0,3.299 0,7.363L0,28.637C0,32.701 3.299,36 7.363,36L28.637,36C32.701,36 36,32.701 36,28.637L36,7.363Z"/>
        </clipPath>
        <g clip-path="url(#_clip1)">
            <g transform="matrix(1.38462,0,0,1.38462,-6.92308,-6.92308)">
                <path d="M36,27C36,29.209 34.209,31 32,31L4,31C1.791,31 0,29.209 0,27L0,23L36,23L36,27Z" style="fill:rgb(238,238,238);fill-rule:nonzero;"/>
            </g>
            <g transform="matrix(1.38462,0,0,1.38462,-6.92308,-6.92308)">
                <rect x="0" y="13" width="36" height="10" style="fill:rgb(205,0,0);fill-rule:nonzero;"/>
            </g>
            <g transform="matrix(1.38462,0,0,1.38462,-6.92308,-6.92308)">
                <path d="M32,5L4,5C1.791,5 0,6.791 0,9L0,13L36,13L36,9C36,6.791 34.209,5 32,5Z" style="fill:rgb(238,238,238);fill-rule:nonzero;"/>
            </g>
        </g>
    </g>
</svg>
