<?xml version="1.0" encoding="UTF-8" standalone="no"?>
<!DOCTYPE svg PUBLIC "-//W3C//DTD SVG 1.1//EN" "http://www.w3.org/Graphics/SVG/1.1/DTD/svg11.dtd">
<svg width="100%" height="100%" viewBox="0 0 48 48" version="1.1" xmlns="http://www.w3.org/2000/svg" xmlns:xlink="http://www.w3.org/1999/xlink" xml:space="preserve" xmlns:serif="http://www.serif.com/" style="fill-rule:evenodd;clip-rule:evenodd;stroke-linejoin:round;stroke-miterlimit:2;">
    <g transform="matrix(1.33333,0,0,1.33333,0,0)">
        <clipPath id="_clip1">
            <path d="M36,7.363C36,3.299 32.701,0 28.637,0L7.363,0C3.299,0 0,3.299 0,7.363L0,28.637C0,32.701 3.299,36 7.363,36L28.637,36C32.701,36 36,32.701 36,28.637L36,7.363Z"/>
        </clipPath>
        <g clip-path="url(#_clip1)">
            <g transform="matrix(1.38462,0,0,1.38462,-6.92308,-6.92308)">
                <path d="M0,9.059L0,13L5.628,13L0,9.059ZM4.664,31L13,31L13,25.163L4.664,31ZM23,25.164L23,31L31.335,31L23,25.164ZM0,23L0,26.941L5.63,23L0,23ZM31.337,5L23,5L23,10.837L31.337,5ZM36,26.942L36,23L30.369,23L36,26.942ZM36,13L36,9.059L30.371,13L36,13ZM13,5L4.664,5L13,10.837L13,5Z" style="fill:rgb(0,36,125);fill-rule:nonzero;"/>
            </g>
            <g transform="matrix(1.38462,0,0,1.38462,-6.92308,-6.92308)">
                <path d="M25.14,23L34.852,29.801C35.323,29.322 35.66,28.719 35.842,28.052L28.627,23L25.14,23ZM13,23L10.859,23L1.148,29.8C1.669,30.33 2.337,30.709 3.086,30.885L13,23.943L13,23ZM23,13L25.141,13L34.852,6.2C34.331,5.67 33.664,5.291 32.915,5.115L23,12.057L23,13ZM10.859,13L1.148,6.2C0.677,6.68 0.34,7.282 0.157,7.949L7.372,13L10.859,13Z" style="fill:rgb(207,27,43);fill-rule:nonzero;"/>
            </g>
            <g transform="matrix(1.38462,0,0,1.38462,-6.92308,-6.92308)">
                <path d="M36,21L21,21L21,31L23,31L23,25.164L31.335,31L32,31C33.117,31 34.126,30.539 34.852,29.801L25.14,23L28.627,23L35.842,28.052C35.935,27.715 36,27.366 36,27L36,26.942L30.369,23L36,23L36,21ZM0,21L0,23L5.63,23L0,26.941L0,27C0,28.091 0.439,29.078 1.148,29.8L10.859,23L13,23L13,23.943L3.086,30.884C3.38,30.954 3.684,31 4,31L4.664,31L13,25.163L13,31L15,31L15,21L0,21ZM36,9C36,7.909 35.561,6.922 34.852,6.2L25.141,13L23,13L23,12.057L32.915,5.115C32.62,5.046 32.316,5 32,5L31.337,5L23,10.837L23,5L21,5L21,15L36,15L36,13L30.371,13L36,9.059L36,9ZM13,5L13,10.837L4.664,5L4,5C2.882,5 1.874,5.461 1.148,6.2L10.859,13L7.372,13L0.157,7.949C0.065,8.286 0,8.634 0,9L0,9.059L5.628,13L0,13L0,15L15,15L15,5L13,5Z" style="fill:rgb(238,238,238);fill-rule:nonzero;"/>
            </g>
            <g transform="matrix(1.38462,0,0,1.38462,-6.92308,-6.92308)">
                <path d="M21,15L21,5L15,5L15,15L0,15L0,21L15,21L15,31L21,31L21,21L36,21L36,15L21,15Z" style="fill:rgb(207,27,43);fill-rule:nonzero;"/>
            </g>
        </g>
    </g>
</svg>
