<svg viewBox="0 0 48 48" xmlns="http://www.w3.org/2000/svg" fill-rule="evenodd" clip-rule="evenodd" stroke-linejoin="round" stroke-miterlimit="2"><g clip-path="url(#_clip1)" transform="scale(1.33333)"><path d="M-6.923 5.62v5.457H.87L-6.923 5.62zM-.465 36h11.542v-8.082L-.465 36zm25.388-8.08V36h11.541l-11.54-8.08zm-31.846-2.997v5.457l7.795-5.457h-7.795zM36.467 0H24.923v8.082L36.467 0zm6.456 30.381v-5.458h-7.797l7.797 5.458zm0-19.304V5.62l-7.794 5.457h7.794zM11.077 0H-.465l11.542 8.082V0z" fill="#00247d" fill-rule="nonzero"/><path d="M27.886 24.923l13.448 9.417a5.506 5.506 0 001.37-2.422l-9.99-6.995h-4.828zm-16.809 0H8.113L-5.334 34.34A5.526 5.526 0 00-2.65 35.84l13.727-9.612v-1.306zm13.846-13.846h2.965l13.446-9.415A5.522 5.522 0 0038.652.159L24.923 9.771v1.306zm-16.81 0L-5.334 1.662a5.53 5.53 0 00-1.372 2.421l9.99 6.994h4.829z" fill="#cf1b2b" fill-rule="nonzero"/><path d="M42.923 22.154h-20.77V36h2.77v-8.08L36.464 36h.92a5.525 5.525 0 003.95-1.66l-13.448-9.417h4.828l9.99 6.995a5.45 5.45 0 00.22-1.456v-.08l-7.798-5.459h7.797v-2.77zm-49.846 0v2.77H.872l-7.795 5.456v.082c0 1.51.608 2.877 1.59 3.877l13.446-9.416h2.964v1.306l-13.727 9.61c.407.097.828.161 1.265.161h.92l11.542-8.082V36h2.77V22.154h-20.77zM42.923 5.538c0-1.51-.608-2.877-1.59-3.876l-13.445 9.415h-2.965V9.771L38.652.16A5.54 5.54 0 0037.385 0h-.918L24.923 8.082V0h-2.77v13.846h20.77v-2.769H35.13l7.794-5.457v-.082zM11.077 0v8.082L-.465 0h-.92a5.518 5.518 0 00-3.949 1.662l13.447 9.415H3.284l-9.99-6.994a5.495 5.495 0 00-.217 1.455v.082L.87 11.077h-7.793v2.77h20.77V0h-2.77z" fill="#eee" fill-rule="nonzero"/><path d="M22.154 13.846V0h-8.308v13.846h-20.77v8.308h20.77V36h8.308V22.154h20.77v-8.308h-20.77z" fill="#cf1b2b" fill-rule="nonzero"/></g></svg>