<svg version="1" xmlns="http://www.w3.org/2000/svg" width="1333.333" height="1333.333" viewBox="0 0 1000.000000 1000.000000"><path d="M502.5 147.6c-20.7 1.3-53.3 6.3-71.5 11.1-30.9 8-57.5 21.3-81.5 40.6-10.8 8.8-26.5 24.4-34.8 34.7-13.3 16.5-26.1 37.4-29.6 48-6.2 19.3-7.3 63.8-2.6 106 6.5 57.1 18.6 117 23.7 117 .6 0 3.1-1.7 5.7-3.9 9.3-7.8 18.6-10.8 25.5-8.1 4.3 1.6 10.6 8.1 19.1 19.5 12.3 16.5 16.3 19.5 22 17 6.2-2.6 11.3-11.6 13.3-23.5 2.1-11.5 5.8-55.4 9.2-107 2.1-32.4 3.2-38.5 8.5-49 6.9-13.6 25.5-32.3 44-44.2 30-19.4 63.8-28.2 107.5-28.2 27.2.1 49 3.1 72.9 10.3 40.8 12.3 61.8 27.8 72.2 53.4 1.4 3.6 2.6 5.3 3 4.5 1-1.8 6.5-36.4 8.5-52.8.9-7.6 1.6-20.6 1.5-29.7-.1-22.8-2.3-29-17-46.7-7.1-8.5-23.2-22.9-32.7-29.3-6.9-4.6-26-15.6-35.4-20.3-26.3-13.3-54.8-18.9-99-19.4-14.6-.2-29.2-.2-32.5 0zM667.5 844c-9.4 31.7-19.9 48-44.1 69.1-31.5 27.4-63 40.9-108.9 46.4-17.1 2.1-48.5 1.6-60.9-.9-33.5-6.8-57.9-17.4-82.2-35.7-23.8-17.9-35.9-37.4-39.7-64.2l-1.2-8.2-13.5-.3c-15.9-.3-20.4.5-42.9 8.5-31.4 11.1-45.1 18.1-81.1 41.3-25.3 16.3-42.5 23.5-78.6 32.9-22.4 5.9-28 7.9-43.3 15.6-16.2 8.1-25.1 13.8-42.5 27.4-8.4 6.6-18.3 13.6-21.9 15.6-5.4 3-6.7 4.2-6.7 6.1v2.4h1000.1l-.3-5.2-.3-5.1-6.5-4c-3.6-2.2-15.9-9.5-27.5-16.2C904.7 934.2 865.2 915 798 888c-25.7-10.4-30.4-12.7-57.5-29-12.1-7.3-24.6-14.6-27.9-16.2-6.8-3.4-16.7-5.5-31.9-6.6l-10.7-.8-2.5 8.6z"/></svg>