<svg height="682.667" viewBox="0 0 512 512" width="682.667" xmlns="http://www.w3.org/2000/svg"><path d="m233.8 70c-1.6.4-5.8 2.5-9.4 4.5s-10.2 4.6-14.7 5.6c-8.2 2-22.2 8.4-26.1 12-1.1 1.1-2.4 1.9-2.9 1.9-2 0-18.3 15.8-23.6 23-3.1 4.1-5.9 7.7-6.2 8-1.6 1.2-6.7 13-7.7 17.5-.6 2.7-1.4 16.9-1.7 31.5-.5 21.4-.3 27.6.8 32 .8 3 2.2 10 3.2 15.5.9 5.5 2.1 11 2.6 12.3s.9 3.8.9 5.7c0 3.8 1.9 13.5 2.6 13.5.3 0 2-1.1 3.8-2.5 9.7-7.4 13.4-6.4 23 5.9 7.5 9.6 9.5 11.1 12 9.3 4.8-3.5 7.2-20.1 9.7-65.7.6-11.3 1.3-21.5 1.5-22.6.8-4.6 18.8-20.5 32.9-29.2 13.4-8.2 52.2-12.5 70.5-7.8 19.4 5 35.8 12.2 40.5 17.8 1.6 1.8 4.3 6.4 6.1 10.3 1.8 3.8 3.4 6.3 3.4 5.5s.5-4.4 1-8c2.6-17.4 4.1-39.5 3-43.7-1.7-6.8-7.2-14.4-15.2-20.9-4-3.2-7.9-6.5-8.6-7.1-4.7-4.5-32.7-17-41-18.4-3.1-.5-8.5-.9-12-.9-6.8 0-16.6-1.2-27.7-3.5-9.8-2-17.5-2.6-20.7-1.5zm99.9 350.2c-.3 2.4-1.6 7.4-2.7 11.1-1.9 6.1-3.1 7.9-10.2 15.3-15.7 16.3-37.6 28.5-57.8 32.3-11.1 2-14.9 2.2-27.2 1.2-12.7-1.1-24.5-4.1-35.2-9.2-8.3-3.9-20.2-13.1-25.6-19.9-6.3-7.9-9-13.7-9.7-21l-.5-5.5-9.2.7c-10.1.7-15.4 2.2-24.2 6.6-3.2 1.6-7.7 3.5-9.9 4.2-6.8 2.2-12.9 5.6-18 10.3-6 5.3-6.4 5.5-22.9 12.4-7.4 3.1-17.8 6.5-24 7.9-24.8 5.5-31 8.7-45.8 23.6-4.7 4.9-9.1 8.8-9.7 8.8-.7 0-1.1 2.5-1.1 6.5v6.5h256c228.4 0 256-.2 256-1.5 0-1.5-4.3-9-6.4-11-2.7-2.6-22.8-17.5-26.7-19.8-2.4-1.4-6.6-3.3-9.4-4.2-11.9-3.9-52.3-21.9-60.5-27-1.9-1.2-5.7-2.9-8.5-3.8-2.7-1-6.6-2.7-8.5-3.9-6.4-4-13.5-7.5-17.5-8.8-4.2-1.3-11.7-5.6-17.5-10.1-2-1.5-5.1-3-7-3.3s-6.2-1-9.5-1.6c-3.3-.5-6.1-1-6.1-1-.1 0-.4 1.9-.7 4.2z"/></svg>